<svg width="32" height="32" viewBox="0 0 32 32" fill="none" xmlns="http://www.w3.org/2000/svg">
<g clip-path="url(#clip0_1579_1213)">
<path d="M18.0885 23.4871C17.666 23.952 17.2118 24.387 16.7292 24.7892C16.8672 24.7709 17.0052 24.7475 17.1432 24.7215C17.5164 24.6471 17.8805 24.5327 18.2292 24.3803C18.3177 24.3439 18.4063 24.3022 18.4896 24.2631C18.5514 24.3431 18.6231 24.4149 18.7031 24.4767C18.7819 24.5418 18.8696 24.5952 18.9635 24.6355C18.7917 24.7267 18.6146 24.81 18.4427 24.8959C18.0573 25.0593 17.6558 25.1815 17.2448 25.2605C16.4133 25.4237 15.558 25.4237 14.7266 25.2605C14.3255 25.18 13.9337 25.0587 13.5573 24.8985C13.5522 24.9 13.5468 24.9 13.5417 24.8985C13.1701 24.7381 12.8136 24.5446 12.4766 24.3204C12.1425 24.0991 11.8319 23.8443 11.5495 23.56C11.2655 23.279 11.0115 22.9692 10.7917 22.6355C10.5662 22.2988 10.3718 21.9423 10.2109 21.5704C10.0491 21.1888 9.92606 20.7918 9.84375 20.3855C9.76397 19.9701 9.72386 19.5481 9.72396 19.1251C9.72354 18.7028 9.76454 18.2816 9.84636 17.8673C9.92656 17.4661 10.0479 17.0743 10.2083 16.698C10.2072 16.6956 10.2066 16.6929 10.2066 16.6902C10.2066 16.6875 10.2072 16.6848 10.2083 16.6824C10.3677 16.3094 10.5612 15.952 10.7865 15.6147C11.0079 15.2815 11.2626 14.9717 11.5469 14.6902C11.8272 14.4046 12.1371 14.1497 12.4714 13.9298C12.8088 13.7003 13.1672 13.5033 13.5417 13.3413C13.9218 13.177 14.318 13.0531 14.724 12.9715C15.1391 12.8895 15.5612 12.8485 15.9844 12.8491C16.4068 12.8482 16.8282 12.8901 17.2422 12.9741C17.6435 13.0525 18.0354 13.173 18.4115 13.3334H18.4271C18.7988 13.4964 19.156 13.6906 19.4948 13.9142C19.8273 14.1355 20.137 14.3893 20.4193 14.672C20.7027 14.9536 20.9566 15.2633 21.1771 15.5965C21.4055 15.9341 21.6016 16.2924 21.763 16.6668C21.9274 17.0498 22.0521 17.4485 22.1354 17.8569C22.1826 18.0891 22.2165 18.3239 22.237 18.56L21.6693 18.409C21.651 18.2605 21.6276 18.1121 21.599 17.9663C21.5252 17.5972 21.4134 17.2368 21.2656 16.8907C21.1728 16.6726 21.0667 16.4604 20.9479 16.2553H19.125C19.4347 16.7751 19.6713 17.335 19.8281 17.9194L19.2109 17.7553C19.0332 17.2261 18.7881 16.722 18.4818 16.2553H16.263V17.2761C16.2216 17.2994 16.1824 17.3265 16.1458 17.3569C16.1172 17.3803 16.0859 17.4064 16.0599 17.4324C16.0233 17.4708 15.9893 17.5117 15.9583 17.5548C15.9104 17.6259 15.8719 17.7029 15.8438 17.784C15.8143 17.8679 15.7968 17.9556 15.7917 18.0444C15.7826 18.1144 15.7826 18.1853 15.7917 18.2553C15.8015 18.3135 15.8155 18.3709 15.8333 18.4272V18.4428C15.834 18.4541 15.834 18.4654 15.8333 18.4767C15.8378 18.4891 15.8431 18.5013 15.849 18.5131L16.2422 19.4012V21.9871H17.3958L17.638 22.5366H16.263V24.4689C16.8324 24.007 17.3612 23.4973 17.8438 22.9454L18.0885 23.5001V23.4871ZM6.58854 15.2683C6.55052 15.3607 6.49406 15.4443 6.42261 15.5141C6.35116 15.5839 6.26622 15.6384 6.173 15.6742C6.07977 15.7101 5.98021 15.7265 5.88041 15.7226C5.78062 15.7186 5.68267 15.6943 5.59257 15.6512C5.50247 15.6081 5.42211 15.5471 5.3564 15.4719C5.29069 15.3967 5.24102 15.3089 5.21041 15.2138C5.17981 15.1187 5.16892 15.0184 5.17842 14.919C5.18791 14.8195 5.21758 14.7231 5.26563 14.6355C6.0392 13.0198 7.16272 11.5965 8.55469 10.4689C8.70675 10.3595 8.89484 10.3124 9.08048 10.3372C9.26612 10.362 9.43529 10.4567 9.55338 10.6021C9.67147 10.7474 9.72955 10.9324 9.71576 11.1192C9.70196 11.306 9.61733 11.4804 9.47917 11.6069C8.25447 12.5964 7.26678 13.8474 6.58854 15.2683ZM25.0781 24.2475C25.7292 26.1616 27.5885 26.1095 28.1615 24.2475C28.7214 24.7501 30.3698 24.8491 30.9844 25.1902C31.186 25.2968 31.3633 25.444 31.5052 25.6225C31.7375 25.9512 31.8695 26.3401 31.8854 26.7423L32.013 27.7293C32.0114 27.8046 31.9947 27.8789 31.9639 27.9477C31.9331 28.0165 31.8888 28.0784 31.8338 28.1299C31.7787 28.1813 31.7139 28.2212 31.6431 28.2472C31.5724 28.2732 31.4972 28.2848 31.4219 28.2814H21.8229C21.7478 28.2845 21.6729 28.2726 21.6025 28.2464C21.532 28.2203 21.4675 28.1803 21.4127 28.1289C21.3579 28.0775 21.3139 28.0157 21.2833 27.947C21.2527 27.8784 21.236 27.8044 21.2344 27.7293L21.3542 26.7449C21.3722 26.3427 21.505 25.9541 21.737 25.6251C21.8789 25.4466 22.0562 25.2994 22.2578 25.1928C22.875 24.8491 24.5234 24.7501 25.0807 24.2475H25.0781ZM3.84375 24.2475C4.49219 26.1616 6.35417 26.1095 6.92708 24.2475C7.48438 24.7501 9.13281 24.8491 9.7474 25.1902C9.949 25.2968 10.1263 25.444 10.2682 25.6225C10.5005 25.9512 10.6325 26.3401 10.6484 26.7423L10.776 27.7293C10.7744 27.8044 10.7577 27.8784 10.7271 27.947C10.6965 28.0157 10.6525 28.0775 10.5977 28.1289C10.5429 28.1803 10.4784 28.2203 10.408 28.2464C10.3375 28.2726 10.2626 28.2845 10.1875 28.2814H0.591146C0.516071 28.2848 0.441054 28.2733 0.370486 28.2475C0.299918 28.2216 0.235217 28.1819 0.180169 28.1308C0.125121 28.0796 0.0808331 28.018 0.0498966 27.9495C0.0189601 27.881 0.00199697 27.807 0 27.7319L0.127604 26.7449C0.147339 26.3414 0.28396 25.9524 0.520833 25.6251C0.662727 25.4466 0.840065 25.2994 1.04167 25.1928C1.65625 24.8491 3.30729 24.7501 3.86458 24.2475H3.84375ZM3.4349 21.1069C3.50082 21.1225 3.56949 21.1225 3.63542 21.1069L3.51563 20.3256C3.5629 20.1191 3.65939 19.927 3.79688 19.7657C3.92935 19.6278 4.10294 19.5364 4.29167 19.5053C4.55208 19.4871 4.63542 19.6772 4.89323 19.8465C5.61734 20.326 6.47319 20.5673 7.34115 20.5366L7.21875 20.9689C7.20011 20.9964 7.19181 21.0296 7.19531 21.0626C7.19531 21.0626 7.19531 21.0626 7.19531 21.0808L7.17969 21.1642H7.25781C7.2834 21.1804 7.3136 21.1877 7.34375 21.185C7.51302 21.1694 7.61979 21.185 7.64583 21.2449C7.67188 21.3048 7.64583 21.4793 7.53906 21.7345L7.00521 22.6147C6.82657 22.943 6.60501 23.246 6.34635 23.5157C6.21854 23.6401 6.06736 23.738 5.90155 23.8037C5.73573 23.8694 5.55854 23.9016 5.38021 23.8985C5.03919 23.9006 4.71099 23.7687 4.46615 23.5314C4.21799 23.2797 4.00353 22.997 3.82813 22.6902L3.35156 21.9298C3.22935 21.7686 3.15127 21.5783 3.125 21.3777C3.12194 21.3341 3.12907 21.2904 3.14583 21.2501C3.16039 21.2173 3.18501 21.1899 3.21615 21.172C3.2832 21.1297 3.36082 21.1071 3.4401 21.1069H3.4349ZM7.67188 20.9272L7.70052 19.8855C7.68631 19.4538 7.52245 19.0404 7.23698 18.7163C6.58594 18.0105 5.3724 17.8308 4.45313 18.1616C4.3018 18.216 4.15685 18.2867 4.02083 18.3725C3.63223 18.6074 3.34528 18.9788 3.21615 19.4142C3.18843 19.5158 3.16841 19.6194 3.15625 19.7241C3.13782 20.1174 3.14565 20.5115 3.17969 20.9038C3.1385 20.9203 3.09921 20.9413 3.0625 20.9663C2.98992 21.0128 2.93281 21.0799 2.89844 21.159C2.86183 21.2407 2.84574 21.3301 2.85156 21.4194C2.87283 21.6707 2.96294 21.9113 3.11198 22.1147L3.58854 22.8725C3.77743 23.2 4.00858 23.5012 4.27604 23.7683C4.57046 24.0535 4.96514 24.2116 5.375 24.2084C5.58808 24.2124 5.79981 24.1739 5.99787 24.0952C6.19593 24.0165 6.37636 23.8992 6.52865 23.7501C6.80658 23.4638 7.04482 23.1415 7.23698 22.7918L7.78906 21.8751V21.8569C7.9375 21.5183 7.96875 21.2866 7.89323 21.1303C7.87056 21.0843 7.83843 21.0436 7.79894 21.0108C7.75945 20.978 7.71349 20.954 7.66406 20.9402L7.67188 20.9272ZM14.3906 3.12511C14.454 3.13961 14.5199 3.13961 14.5833 3.12511L14.4609 2.34386C14.5051 2.13645 14.603 1.94427 14.7448 1.78657C14.8766 1.64767 15.0505 1.55613 15.2396 1.52615C15.5 1.50792 15.5807 1.69803 15.8411 1.86469C16.5653 2.34423 17.4211 2.58551 18.2891 2.5548L18.1667 2.98709C18.1486 3.01485 18.1404 3.04785 18.1432 3.08084C18.1432 3.08084 18.1432 3.09386 18.1432 3.09907L18.1276 3.18501H18.2031C18.2295 3.20157 18.2607 3.2089 18.2917 3.20584C18.4609 3.19021 18.5521 3.20584 18.5938 3.26053C18.6354 3.31521 18.5938 3.49751 18.487 3.75011L17.9688 4.62251C17.789 4.94993 17.5666 5.25205 17.3073 5.52094C17.1802 5.64562 17.0295 5.7437 16.8641 5.80943C16.6986 5.87516 16.5217 5.90723 16.3438 5.90376C16.0027 5.90578 15.6745 5.77394 15.4297 5.53657C15.176 5.28433 14.9579 4.99872 14.7813 4.68761L14.3047 3.92719C14.1825 3.76965 14.1035 3.58295 14.0755 3.38553C14.0727 3.34196 14.0798 3.29831 14.0964 3.25792C14.1101 3.22603 14.1338 3.1995 14.1641 3.1824C14.2321 3.14013 14.3105 3.11759 14.3906 3.1173V3.12511ZM14.7943 6.25011C15.4453 8.16417 17.3047 8.11469 17.8802 6.25011C18.4375 6.75271 20.0885 6.85428 20.7005 7.19542C20.9029 7.29967 21.0805 7.44621 21.2214 7.62511C21.4536 7.95381 21.5857 8.34275 21.6016 8.7449L21.7292 9.73449C21.7268 9.80951 21.7096 9.88332 21.6786 9.95165C21.6475 10.02 21.6032 10.0815 21.5482 10.1326C21.4933 10.1837 21.4287 10.2234 21.3583 10.2493C21.2879 10.2753 21.213 10.2871 21.138 10.284H11.5443C11.4693 10.2871 11.3944 10.2753 11.324 10.2493C11.2536 10.2234 11.189 10.1837 11.134 10.1326C11.0791 10.0815 11.0348 10.02 11.0037 9.95165C10.9727 9.88332 10.9555 9.80951 10.9531 9.73449L11.0807 8.7449C11.0957 8.34459 11.2269 7.95729 11.4583 7.63032C11.599 7.45125 11.7766 7.30468 11.9792 7.20063C12.5911 6.85948 14.2448 6.75792 14.7995 6.25532L14.7943 6.25011ZM18.6276 2.93761L18.6563 1.89594C18.6418 1.4638 18.4769 1.05026 18.1901 0.726673C17.5391 0.000110249 16.3255 -0.169161 15.4089 0.161569C15.2565 0.215441 15.1106 0.286193 14.974 0.372506C14.5889 0.602975 14.3024 0.967379 14.1693 1.39594C14.1414 1.49742 14.1222 1.6011 14.112 1.70584C14.094 2.09998 14.101 2.49487 14.1328 2.88813C14.0915 2.90335 14.0522 2.92346 14.0156 2.94803C13.9449 2.99668 13.8883 3.06316 13.8516 3.14074C13.8168 3.21754 13.7998 3.30124 13.8021 3.38553C13.8272 3.63813 13.9218 3.87882 14.0755 4.08084L14.5521 4.83865C14.7407 5.1654 14.9729 5.46502 15.2422 5.72928C15.5366 6.01444 15.9313 6.1725 16.3411 6.16938C16.553 6.17572 16.7639 6.1401 16.9619 6.06457C17.1599 5.98904 17.341 5.87509 17.4948 5.72928C17.7725 5.44339 18.0099 5.12097 18.2005 4.77094L18.75 3.8699V3.85428C18.8984 3.51574 18.9323 3.28136 18.8542 3.12511C18.8319 3.07955 18.8002 3.03926 18.7611 3.00693C18.722 2.9746 18.6765 2.95097 18.6276 2.93761ZM24.6693 21.1069C24.5916 21.1078 24.5154 21.1284 24.4479 21.1668C24.4193 21.1869 24.396 21.2137 24.3802 21.2449C24.3627 21.285 24.3555 21.3289 24.3594 21.3725C24.384 21.5727 24.4623 21.7626 24.5859 21.922L25.0625 22.6824C25.2395 22.9888 25.4547 23.2715 25.7031 23.5235C25.948 23.7609 26.2762 23.8928 26.6172 23.8907C26.9772 23.8961 27.3247 23.7584 27.5833 23.5079C27.8418 23.238 28.0633 22.935 28.2422 22.6069L28.7786 21.7241C28.8906 21.4637 28.9245 21.31 28.8854 21.2345C28.8464 21.159 28.7526 21.1616 28.5833 21.1746C28.5524 21.1767 28.5215 21.1695 28.4948 21.1538H28.4193L28.4349 21.0704C28.4335 21.0644 28.4335 21.0582 28.4349 21.0522C28.4314 21.0192 28.4397 20.9859 28.4583 20.9584L28.5807 20.5262C27.7129 20.5555 26.8575 20.3143 26.1328 19.836C25.8724 19.6668 25.7943 19.4767 25.5313 19.4949C25.3429 19.527 25.1696 19.6182 25.0365 19.7553C24.8965 19.9143 24.7989 20.1059 24.7526 20.3126L24.875 21.0939C24.8075 21.1108 24.7368 21.1108 24.6693 21.0939V21.1069ZM28.9063 20.9272C28.9555 20.9397 29.0014 20.9631 29.0406 20.9955C29.0798 21.0279 29.1113 21.0686 29.1328 21.1147C29.2109 21.2709 29.1797 21.5053 29.0313 21.8413V21.8595L28.487 22.7527C28.2953 23.1021 28.058 23.4243 27.7813 23.711C27.6293 23.8606 27.4489 23.9782 27.2508 24.0569C27.0527 24.1357 26.8408 24.1739 26.6276 24.1694C26.215 24.1746 25.8172 24.0164 25.5208 23.7293C25.2531 23.4613 25.022 23.1593 24.8333 22.8308L24.3568 22.0756C24.2102 21.8708 24.1204 21.631 24.0964 21.3803C24.0901 21.2907 24.1072 21.201 24.1458 21.1199C24.1817 21.0418 24.2385 20.9751 24.3099 20.9272C24.3466 20.9037 24.3849 20.8829 24.4245 20.8647C24.3913 20.4724 24.3844 20.0783 24.4036 19.685C24.4137 19.5802 24.4328 19.4765 24.4609 19.3751C24.5923 18.9409 24.8787 18.5702 25.2656 18.3334C25.4026 18.2476 25.5484 18.1769 25.7005 18.1225C26.6172 17.7918 27.8307 17.9715 28.4818 18.6772C28.7711 18.9992 28.9363 19.4137 28.9479 19.8465L28.9063 20.9272ZM23.3464 11.7189C23.2727 11.6571 23.2118 11.5815 23.1674 11.4963C23.1229 11.411 23.0957 11.3179 23.0872 11.2221C23.0787 11.1264 23.0892 11.0299 23.118 10.9382C23.1469 10.8464 23.1935 10.7613 23.2552 10.6876C23.3169 10.6139 23.3926 10.5531 23.4778 10.5086C23.563 10.4642 23.6562 10.4369 23.752 10.4285C23.8477 10.42 23.9442 10.4305 24.0359 10.4593C24.1276 10.4881 24.2128 10.5347 24.2865 10.5965C24.4349 10.7215 24.5469 10.8204 24.6406 10.9012C24.7344 10.9819 24.8568 11.1043 24.9792 11.2215C25.4205 11.6549 25.828 12.1215 26.1979 12.6173C26.5671 13.1127 26.8987 13.635 27.1901 14.1798C27.2809 14.3525 27.2994 14.5541 27.2416 14.7405C27.1837 14.9268 27.0542 15.0825 26.8815 15.1733C26.7088 15.2641 26.5072 15.2826 26.3209 15.2247C26.1345 15.1669 25.9788 15.0374 25.888 14.8647C25.6359 14.3844 25.345 13.9254 25.0182 13.4923C24.6969 13.061 24.3425 12.6552 23.9583 12.2788C23.8724 12.1902 23.7708 12.0991 23.6615 11.9975L23.3568 11.7371L23.3464 11.7189ZM19.7188 29.1225C19.9035 29.0607 20.1052 29.0748 20.2796 29.1617C20.4539 29.2487 20.5866 29.4013 20.6484 29.586C20.7103 29.7708 20.6961 29.9725 20.6092 30.1469C20.5223 30.3212 20.3697 30.4539 20.1849 30.5157C19.5679 30.7241 18.9346 30.8809 18.2917 30.9845C16.3227 31.3063 14.3047 31.1372 12.4167 30.4923C12.2401 30.4229 12.097 30.2881 12.0173 30.1159C11.9376 29.9437 11.9274 29.7474 11.9889 29.5678C12.0503 29.3883 12.1786 29.2394 12.347 29.1521C12.5155 29.0647 12.7111 29.0458 12.8932 29.0991C14.5511 29.6651 16.3228 29.8144 18.0521 29.534C18.6181 29.4433 19.1756 29.3057 19.7188 29.1225ZM22.0625 23.3152C22.0267 23.3516 21.9843 23.3808 21.9375 23.4012C21.8903 23.4241 21.8389 23.4374 21.7865 23.4402C21.7302 23.4458 21.6735 23.4396 21.6198 23.422C21.5659 23.406 21.5161 23.3785 21.474 23.3413L20.4479 22.4975L20.026 23.5157C19.9931 23.5969 19.9521 23.6746 19.9036 23.7475C19.8597 23.8148 19.8072 23.8761 19.7474 23.9298C19.7033 23.9689 19.6542 24.0022 19.6016 24.0288C19.5523 24.053 19.4996 24.0697 19.4453 24.0782C19.3834 24.0899 19.3198 24.0899 19.2578 24.0782C19.1964 24.0594 19.139 24.0294 19.0885 23.9897C19.042 23.9521 19.0008 23.9083 18.9661 23.8595C18.9292 23.806 18.8969 23.7493 18.8698 23.6902C18.0885 21.922 17.151 20.0209 16.4505 18.2397C16.4417 18.2162 16.4356 18.1917 16.4323 18.1668C16.4297 18.1425 16.4297 18.1181 16.4323 18.0939C16.4353 18.0647 16.4414 18.0358 16.4505 18.0079C16.4609 17.9798 16.474 17.9528 16.4896 17.9272C16.4985 17.9162 16.508 17.9058 16.5182 17.8959C16.5274 17.8859 16.5379 17.8771 16.5495 17.8699C16.5678 17.8545 16.5879 17.8414 16.6094 17.8308C16.6298 17.8204 16.6518 17.8134 16.6745 17.81C16.6944 17.8075 16.7145 17.8075 16.7344 17.81C16.756 17.8073 16.7779 17.8073 16.7995 17.81H16.8229C18.75 18.2683 20.6771 18.81 22.5911 19.3178C22.6538 19.3348 22.7149 19.3574 22.7734 19.3855C22.8265 19.4114 22.8756 19.4447 22.9193 19.4845C22.9671 19.5277 23.006 19.5799 23.0339 19.6381C23.0605 19.6953 23.0747 19.7574 23.0755 19.8204C23.078 19.8752 23.07 19.93 23.0521 19.9819C23.0359 20.0382 23.0113 20.0918 22.9792 20.1407C22.9362 20.2087 22.8835 20.2701 22.8229 20.323C22.7579 20.3827 22.6873 20.4359 22.612 20.4819C22.2969 20.6668 21.9844 20.8621 21.6719 21.0522L22.6953 21.9012C22.7379 21.938 22.7725 21.9832 22.7969 22.034C22.8206 22.082 22.8348 22.1342 22.8385 22.1876C22.8437 22.2428 22.8384 22.2985 22.8229 22.3517C22.8062 22.4042 22.7806 22.4535 22.7474 22.4975C22.53 22.7787 22.2979 23.0482 22.0521 23.3048L22.0625 23.3152ZM21.7396 22.9168L22.3203 22.2345L21.0885 21.1928L21.0677 21.172L21.0443 21.1381C21.0124 21.0811 21.0031 21.0142 21.0182 20.9506C21.0253 20.9187 21.0389 20.8885 21.0581 20.8621C21.0774 20.8356 21.1019 20.8135 21.1302 20.797C21.5313 20.573 21.9531 20.3126 22.3542 20.0522C22.3982 20.0252 22.44 19.9947 22.4792 19.961C22.5083 19.9334 22.5344 19.9029 22.5573 19.8699C22.5645 19.8606 22.5698 19.85 22.5729 19.8387L22.5391 19.8204C22.5142 19.8086 22.4879 19.7999 22.4609 19.7944L17.0573 18.3673L19.3281 23.4767C19.3395 23.5018 19.3526 23.5262 19.3672 23.5496L19.388 23.5756L19.4167 23.5522C19.4457 23.5252 19.4711 23.4946 19.4922 23.461C19.5203 23.4176 19.5438 23.3713 19.5625 23.323L20.1068 21.9897C20.1095 21.9803 20.1139 21.9715 20.1198 21.9636L20.1406 21.9376C20.1848 21.8903 20.2451 21.8612 20.3096 21.8559C20.3741 21.8506 20.4383 21.8695 20.4896 21.909L21.7396 22.9168ZM15.2526 24.784C14.4479 24.1281 13.7342 23.3679 13.1302 22.5235H11.3958C11.5618 22.7504 11.7455 22.9638 11.9453 23.1616C12.2022 23.4189 12.4839 23.65 12.7865 23.8517C13.0957 24.0574 13.4245 24.2318 13.7682 24.3725C14.114 24.5235 14.4744 24.6387 14.8438 24.7163C14.9792 24.7423 15.1198 24.7657 15.2578 24.784H15.2526ZM11.0339 21.9767H12.7786C12.3113 21.1913 12.0431 20.3035 11.9974 19.3907H10.2786C10.2929 19.6846 10.3286 19.9771 10.3854 20.2657C10.4572 20.6395 10.5689 21.0044 10.7188 21.3543C10.8117 21.5719 10.9169 21.784 11.0339 21.9897V21.9767ZM10.2786 18.8517H12.013C12.0954 17.9352 12.3886 17.0501 12.8698 16.2657H11.0339C10.9169 16.4714 10.8117 16.6836 10.7188 16.9012C10.571 17.2448 10.4585 17.6025 10.3828 17.9689C10.3252 18.2573 10.2904 18.5499 10.2786 18.8439V18.8517ZM11.3932 15.7267H13.2161C13.8122 14.8914 14.5064 14.1307 15.2839 13.461C15.1276 13.4793 14.9792 13.5027 14.8307 13.5314C14.4622 13.6049 14.1025 13.7175 13.7578 13.8673C13.4154 14.0107 13.0868 14.1851 12.776 14.3881C12.4735 14.5898 12.1917 14.8209 11.9349 15.0782C11.7345 15.2745 11.5508 15.4871 11.3854 15.7137L11.3932 15.7267ZM16.6875 13.461C17.4632 14.1232 18.1558 14.877 18.75 15.7058H20.5729C20.1895 15.1862 19.719 14.7368 19.1823 14.3777C18.8725 14.173 18.5437 13.9986 18.2005 13.8569C17.8583 13.712 17.5023 13.6021 17.138 13.5288C16.987 13.5001 16.8359 13.4767 16.6875 13.4584V13.461ZM16.263 13.8022V15.711H18.0859C17.5452 15.0141 16.9344 14.3744 16.263 13.8022ZM15.7135 24.4558V22.5235H13.8021C14.3611 23.2405 15.0027 23.889 15.7135 24.4558ZM15.7135 21.9767V19.3907H12.5495C12.6044 20.3143 12.9037 21.2067 13.4167 21.9767H15.7135ZM15.7135 18.8517V16.2553H13.513C12.9872 17.0256 12.6597 17.9139 12.5599 18.8413L15.7135 18.8517ZM15.7135 15.7267V13.8022C15.0422 14.3744 14.4314 15.0141 13.8906 15.711L15.7135 15.7267Z" fill="#000066"/>
</g>
<defs>
<clipPath id="clip0_1579_1213">
<rect width="32" height="31.1432" fill="white"/>
</clipPath>
</defs>
</svg>
