<svg width="32" height="32" viewBox="0 0 32 32" fill="none" xmlns="http://www.w3.org/2000/svg">
<path d="M3.99985 22.4583C4.29673 22.2266 4.72642 22.2812 4.95819 22.5781C5.18996 22.875 5.13527 23.3047 4.8384 23.5364L1.39308 26.2135L1.36704 29.8203L5.59881 29.5833L7.89569 25.9323C8.09621 25.6146 8.51808 25.5182 8.83579 25.7187C9.1535 25.9193 9.24985 26.3411 9.04933 26.6588L6.57537 30.5885C6.4634 30.7786 6.26027 30.9115 6.02329 30.9245L0.718604 31.224C0.705583 31.224 0.692562 31.224 0.679541 31.224C0.304541 31.2213 -0.00014619 30.9167 0.00245798 30.5391L0.0363121 25.9271C0.0206871 25.7057 0.111833 25.4818 0.299333 25.3359L3.99985 22.4583ZM10.44 14.0443C12.1587 8.90624 14.4764 5.26301 17.7368 2.96874C21.1196 0.585927 25.4686 -0.315115 31.1665 0.0963436C31.5597 0.124989 31.8618 0.447906 31.867 0.833323C32.4191 7.00259 31.2212 11.3776 28.6691 14.6927C26.2134 17.8802 22.5285 20.0364 17.9556 21.8463V27.8698C17.9556 28.1641 17.7863 28.4219 17.5389 28.5443L12.8827 31.4219C12.5285 31.6406 12.065 31.5312 11.8462 31.1771C11.7889 31.0833 11.7525 30.9818 11.7394 30.8802C10.7082 23 9.61183 22.6224 3.16912 20.3932C2.39829 20.1276 1.56756 19.8385 1.00506 19.6406C0.611833 19.5026 0.406104 19.0703 0.544125 18.6797C0.57277 18.5963 0.617041 18.5208 0.669125 18.4531L3.73944 14.0781C3.89308 13.8594 4.14308 13.7448 4.39048 13.7578L10.44 14.0443ZM23.6222 8.23957C23.2056 7.82291 22.6327 7.5677 21.9972 7.5677C21.3644 7.5677 20.7889 7.82551 20.3722 8.23957C19.9556 8.65624 19.7004 9.22916 19.7004 9.86457C19.7004 10.4974 19.9582 11.0729 20.3722 11.4896C20.7889 11.9062 21.3618 12.1614 21.9972 12.1614C22.6301 12.1614 23.2056 11.9036 23.6222 11.4896C24.0389 11.0729 24.2941 10.5 24.2941 9.86457C24.2941 9.22916 24.0363 8.65624 23.6222 8.23957Z" fill="white"/>
</svg>
