<svg width="32" height="32" viewBox="0 0 32 32" fill="none" xmlns="http://www.w3.org/2000/svg">
<path fill-rule="evenodd" clip-rule="evenodd" d="M23.3985 22.8769L20.9063 29.2691L11.7188 29.1463L9.17718 22.8743C11.3621 18.9543 13.5808 14.172 14.7214 9.98808L15.9324 10.1187L15.8855 21.3926C15.6258 21.4907 15.4094 21.6784 15.2752 21.9222C15.141 22.166 15.0978 22.4497 15.1534 22.7226C15.2089 22.9954 15.3595 23.2395 15.5782 23.4109C15.7969 23.5824 16.0693 23.67 16.3466 23.658C16.6238 23.646 16.8877 23.5353 17.0909 23.3456C17.2942 23.156 17.4233 22.8998 17.4553 22.6232C17.4873 22.3466 17.42 22.0676 17.2654 21.8363C17.1109 21.605 16.8792 21.4366 16.6121 21.3612L16.6511 10.1919L18.0366 10.1292C19.0522 14.3471 21.2501 19.1138 23.3985 22.8822V22.8769ZM13.9116 0H18.7136C18.798 -6.99332e-07 18.8815 0.0167139 18.9594 0.0491847C19.0373 0.0816555 19.108 0.129243 19.1676 0.189217C19.2271 0.24919 19.2742 0.320369 19.3062 0.398668C19.3383 0.476967 19.3546 0.560845 19.3543 0.645488V2.21347H26.9272C27.0569 1.84363 27.2678 1.5078 27.5444 1.23087C27.7862 0.987893 28.0734 0.795138 28.3896 0.663625C28.7057 0.532112 29.0446 0.46442 29.3868 0.46442C29.729 0.46442 30.0679 0.532112 30.3841 0.663625C30.7002 0.795138 30.9874 0.987893 31.2293 1.23087C31.4714 1.47358 31.6635 1.76179 31.7945 2.07905C31.9256 2.3963 31.993 2.73636 31.993 3.07979C31.993 3.42322 31.9256 3.76328 31.7945 4.08053C31.6635 4.39778 31.4714 4.686 31.2293 4.92871C30.9873 5.17247 30.6998 5.36588 30.3832 5.49786C30.0665 5.62984 29.7271 5.69778 29.3842 5.69778C29.0414 5.69778 28.7019 5.62984 28.3853 5.49786C28.0686 5.36588 27.7811 5.17247 27.5392 4.92871L27.4923 4.87644C27.2379 4.60993 27.0435 4.2918 26.922 3.94349H23.0157C24.2775 4.67989 25.4193 5.60619 26.4011 6.69008C28.3577 8.85429 29.6522 11.5378 30.1303 14.4203H31.172C31.3792 14.4203 31.5779 14.5029 31.7244 14.6499C31.8709 14.7969 31.9532 14.9963 31.9532 15.2042V18.7348C31.9532 18.9428 31.8709 19.1422 31.7244 19.2892C31.5779 19.4362 31.3792 19.5188 31.172 19.5188H27.7162C27.509 19.5188 27.3103 19.4362 27.1638 19.2892C27.0173 19.1422 26.935 18.9428 26.935 18.7348V15.2042C26.935 14.9963 27.0173 14.7969 27.1638 14.6499C27.3103 14.5029 27.509 14.4203 27.7162 14.4203H28.5209C28.0571 11.9435 26.9186 9.64418 25.2319 7.77722C23.6581 6.0279 21.6188 4.76662 19.3543 4.1421V5.52193C19.3543 5.69267 19.2869 5.85646 19.1668 5.97744C19.0467 6.09841 18.8838 6.16672 18.7136 6.16742H13.9116C13.7434 6.16333 13.5835 6.09361 13.4659 5.97307C13.3482 5.85253 13.282 5.69068 13.2813 5.52193V4.14471C10.9579 4.78862 8.87479 6.10469 7.29176 7.92879C5.67739 9.77331 4.58326 12.0171 4.12249 14.4281H4.90374C5.11094 14.4281 5.30966 14.5107 5.45617 14.6577C5.60268 14.8047 5.68499 15.0042 5.68499 15.2121V18.7348C5.68499 18.9428 5.60268 19.1422 5.45617 19.2892C5.30966 19.4362 5.11094 19.5188 4.90374 19.5188H1.42978C1.22258 19.5188 1.02387 19.4362 0.877356 19.2892C0.730843 19.1422 0.648533 18.9428 0.648533 18.7348V15.2042C0.648533 14.9963 0.730843 14.7969 0.877356 14.6499C1.02387 14.5029 1.22258 14.4203 1.42978 14.4203H2.49749C2.9774 11.6178 4.22025 9.00304 6.08864 6.86517C7.10598 5.70765 8.30386 4.72356 9.63551 3.95133H5.07301C4.94299 4.32024 4.73207 4.65515 4.45583 4.93132C3.96848 5.41954 3.30828 5.69419 2.61966 5.69517C1.93104 5.69615 1.27007 5.42338 0.781346 4.93655C0.539219 4.69384 0.347139 4.40562 0.216086 4.08837C0.0850329 3.77112 0.0175781 3.43106 0.0175781 3.08763C0.0175781 2.7442 0.0850329 2.40414 0.216086 2.08689C0.347139 1.76963 0.539219 1.48142 0.781346 1.23871C1.0232 0.995733 1.31041 0.802978 1.62655 0.671465C1.94269 0.539952 2.28157 0.47226 2.62379 0.47226C2.96602 0.47226 3.30489 0.539952 3.62103 0.671465C3.93718 0.802978 4.22438 0.995733 4.46624 1.23871C4.74516 1.51526 4.95719 1.8523 5.08603 2.22393H13.2813V0.655941C13.2786 0.485185 13.3433 0.320279 13.4614 0.197336C13.5796 0.0743926 13.7414 0.0034341 13.9116 0ZM20.6824 32H11.7709V30.2177H20.6876V32H20.6824Z" fill="white"/>
</svg>
