<svg width="32" height="32" viewBox="0 0 32 32" fill="none" xmlns="http://www.w3.org/2000/svg">
<g clip-path="url(#clip0_1579_1135)">
<path d="M3.99985 22.4586C4.29673 22.2268 4.72642 22.2815 4.95819 22.5784C5.18996 22.8752 5.13527 23.3049 4.8384 23.5367L1.39308 26.2138L1.36704 29.8205L5.59881 29.5836L7.89569 25.9325C8.09621 25.6148 8.51808 25.5185 8.83579 25.719C9.1535 25.9195 9.24985 26.3414 9.04933 26.6591L6.57537 30.5888C6.46339 30.7789 6.26027 30.9117 6.02329 30.9247L0.718604 31.2242C0.705583 31.2242 0.692562 31.2242 0.679541 31.2242C0.304541 31.2216 -0.00014619 30.9169 0.00245798 30.5393L0.0363121 25.9273C0.0206871 25.706 0.111833 25.482 0.299333 25.3362L3.99985 22.4586ZM10.44 14.0445C12.1587 8.90648 14.4764 5.26325 17.7368 2.96898C21.1196 0.586171 25.4686 -0.314871 31.1665 0.0965878C31.5597 0.125234 31.8618 0.44815 31.867 0.833567C32.4191 7.00284 31.2212 11.3778 28.6691 14.6929C26.2134 17.8804 22.5285 20.0367 17.9556 21.8466V27.87C17.9556 28.1643 17.7863 28.4221 17.5389 28.5445L12.8827 31.4221C12.5285 31.6409 12.065 31.5315 11.8462 31.1773C11.7889 31.0836 11.7525 30.982 11.7394 30.8804C10.7082 23.0002 9.61183 22.6226 3.16912 20.3935C2.39829 20.1278 1.56756 19.8388 1.00506 19.6409C0.611833 19.5028 0.406104 19.0705 0.544125 18.6799C0.57277 18.5966 0.617041 18.5211 0.669125 18.4534L3.73944 14.0784C3.89308 13.8596 4.14308 13.745 4.39048 13.758L10.44 14.0445ZM23.6222 8.23982C23.2056 7.82315 22.6327 7.56794 21.9972 7.56794C21.3644 7.56794 20.7889 7.82575 20.3723 8.23982C19.9556 8.65648 19.7004 9.2294 19.7004 9.86482C19.7004 10.4976 19.9582 11.0732 20.3723 11.4898C20.7889 11.9065 21.3618 12.1617 21.9972 12.1617C22.6301 12.1617 23.2056 11.9039 23.6222 11.4898C24.0389 11.0732 24.2941 10.5002 24.2941 9.86482C24.2941 9.2294 24.0363 8.65648 23.6222 8.23982Z" fill="#000066"/>
</g>
<defs>
<clipPath id="clip0_1579_1135">
<rect width="32" height="31.5313" fill="white"/>
</clipPath>
</defs>
</svg>
