<svg width="20" height="32" viewBox="0 0 20 32" fill="none" xmlns="http://www.w3.org/2000/svg">
<g clip-path="url(#clip0_1579_1205)">
<path fill-rule="evenodd" clip-rule="evenodd" d="M8.14304 0C12.2238 8.66667 -0.372587 8.69531 -0.000190839 17.6563C0.106714 18.9181 0.37541 20.1609 0.799288 21.3542C0.488522 23.2696 0.793108 25.2343 1.66926 26.9658C2.54541 28.6972 3.94801 30.1063 5.67542 30.9904C7.40282 31.8745 9.36608 32.1881 11.283 31.8862C13.1998 31.5842 14.9716 30.6822 16.3436 29.3099C17.5831 28.0687 18.4414 26.4986 18.817 24.7852C19.1927 23.0717 19.0699 21.2865 18.4634 19.6406C19.239 18.286 19.6683 16.7609 19.7133 15.2005C19.2706 11.4974 15.5831 10.4766 17.5649 6.54948C15.0232 6.69531 14.4139 8.41406 14.4191 11.0807C14.7342 14.5052 8.21856 13.9948 11.6326 9.80729C14.5675 6.20833 11.6821 1.99479 8.14304 0ZM9.72377 24.7161C10.0137 24.7161 10.2972 24.8021 10.5383 24.9632C10.7794 25.1243 10.9673 25.3533 11.0783 25.6212C11.1893 25.8891 11.2183 26.1839 11.1617 26.4683C11.1052 26.7527 10.9655 27.014 10.7605 27.219C10.5554 27.4241 10.2942 27.5637 10.0098 27.6203C9.72539 27.6768 9.4306 27.6478 9.1627 27.5368C8.89479 27.4259 8.66581 27.2379 8.50471 26.9968C8.34361 26.7557 8.25762 26.4723 8.25762 26.1823C8.25762 25.7934 8.41209 25.4205 8.68705 25.1456C8.962 24.8706 9.33492 24.7161 9.72377 24.7161ZM7.55189 24.0026C7.36982 24.1375 7.14274 24.197 6.91793 24.1687C6.69311 24.1403 6.48787 24.0264 6.34493 23.8506C6.20199 23.6748 6.13237 23.4506 6.15054 23.2247C6.16872 22.9989 6.2733 22.7887 6.44252 22.638C7.36085 21.8449 8.52631 21.3957 9.73939 21.3672C10.947 21.3855 12.1092 21.8301 13.0206 22.6224C13.1899 22.7731 13.2944 22.9832 13.3126 23.2091C13.3308 23.435 13.2612 23.6591 13.1182 23.835C12.9753 24.0108 12.7701 24.1247 12.5452 24.153C12.3204 24.1813 12.0933 24.1219 11.9113 23.987C11.3144 23.4527 10.5479 23.1465 9.7472 23.1224C8.93565 23.153 8.15981 23.4641 7.55189 24.0026ZM5.58575 21.5547C5.40987 21.683 5.19259 21.7413 4.97612 21.7184C4.75964 21.6954 4.55941 21.5928 4.41433 21.4306C4.26924 21.2683 4.18965 21.0578 4.19101 20.8402C4.19237 20.6225 4.27458 20.4131 4.42168 20.2526C6.11439 18.75 7.92429 17.9687 9.76804 18.0026C11.5675 18.0312 13.354 18.8177 15.0493 20.4141C15.1334 20.4931 15.2012 20.5879 15.2487 20.693C15.2961 20.7982 15.3225 20.9117 15.3261 21.0271C15.3297 21.1424 15.3106 21.2573 15.2698 21.3653C15.229 21.4733 15.1673 21.5721 15.0884 21.6563C15.0094 21.7404 14.9146 21.8081 14.8094 21.8556C14.7042 21.9031 14.5907 21.9294 14.4753 21.933C14.36 21.9367 14.2451 21.9175 14.1371 21.8768C14.0292 21.836 13.9303 21.7743 13.8462 21.6953C12.4816 20.4115 11.0936 19.7917 9.742 19.7578C8.34877 19.7344 6.93991 20.349 5.57533 21.5547H5.58575ZM9.85658 14.6849C11.4665 14.6854 13.0402 15.1633 14.3786 16.0581C15.7169 16.9529 16.7599 18.2245 17.3757 19.712C17.9914 21.1996 18.1523 22.8363 17.8379 24.4153C17.5235 25.9942 16.7479 27.4445 15.6093 28.5827C14.4708 29.721 13.0202 30.496 11.4412 30.8099C9.86212 31.1238 8.22544 30.9624 6.73809 30.3462C5.25074 29.73 3.9795 28.6866 3.08511 27.3479C2.19072 26.0093 1.71335 24.4355 1.71335 22.8255C1.71301 21.7562 1.92342 20.6972 2.33257 19.7092C2.74172 18.7212 3.34157 17.8236 4.09784 17.0675C4.85411 16.3115 5.75197 15.7119 6.74009 15.3031C7.72821 14.8943 8.78722 14.6842 9.85658 14.6849Z" fill="#00388D"/>
</g>
<defs>
<clipPath id="clip0_1579_1205">
<rect width="19.7135" height="32" fill="white"/>
</clipPath>
</defs>
</svg>
