<svg width="32" height="25" viewBox="0 0 32 25" fill="none" xmlns="http://www.w3.org/2000/svg">
<g clip-path="url(#clip0_1579_1217)">
<path fill-rule="evenodd" clip-rule="evenodd" d="M0 10.7188H6.46615V22.224H0V10.7188ZM9.375 3.06253L18.4922 0.0260765C18.6016 -0.0103818 18.7161 -0.00777765 18.8151 0.0286807V0.0260765L28.0521 3.19014C28.2786 3.26826 28.4167 3.48701 28.3958 3.71618C28.3984 3.7266 28.3984 3.73962 28.3984 3.75264V13.3985L28.8047 13.198C31.3047 12.375 33.0833 14.9896 31.2396 16.8099C27.6198 19.4427 23.9089 21.6094 20.112 23.3594C17.3542 25.0365 14.5964 24.9792 11.8411 23.3594L7.77083 21.2578V11.6433H8.9375V3.56774C8.9349 3.30993 9.125 3.09639 9.375 3.06253ZM12.0937 11.6433C13.9271 11.9714 15.7604 12.9662 17.5937 14.1198H17.9766V8.82295L10.1484 5.48181V11.6433H12.0937ZM19.3828 14.1198H20.9557C22.4766 14.211 23.2734 15.7526 21.7943 16.7657C21.099 17.2761 20.2734 17.4688 19.3828 17.5105V18.7839C21.0495 18.6901 22.4219 18.2292 23.3047 16.849L23.8073 15.6745L27.1849 14V5.41149L19.3828 8.82816V14.1198ZM17.9792 17.4792C17.8099 17.4662 17.638 17.4532 17.4687 17.4375C16.3698 17.3828 16.3229 18.8594 17.4687 18.8646C17.6354 18.8776 17.8073 18.8698 17.9792 18.8542V18.4636V17.4792ZM18.6458 1.42972L10.8802 4.01826L18.6823 7.55733L26.487 4.11722L18.6458 1.42972Z" fill="#00388D"/>
</g>
<defs>
<clipPath id="clip0_1579_1217">
<rect width="32" height="24.5964" fill="white"/>
</clipPath>
</defs>
</svg>
