<svg width="29" height="32" viewBox="0 0 29 32" fill="none" xmlns="http://www.w3.org/2000/svg">
<path fill-rule="evenodd" clip-rule="evenodd" d="M10.6537 14.4063L10.5834 18.7604H15.1433C16.1095 18.7604 16.8985 19.5495 16.8985 20.5156V22.2708H16.8803V29.1354C16.8803 30.1016 16.0912 30.8906 15.1251 30.8906H13.3699V22.776C13.3699 22.0078 13.0808 22.2734 12.211 22.2734H8.28916V22.263H6.03916C4.58603 22.263 3.39853 21.0755 3.39853 19.6224V10.4635C3.39853 8.98698 4.60686 7.77865 6.08343 7.77865H7.41155C10.1772 7.77865 9.73707 9.68229 10.961 10.8802C12.1694 12.0625 11.8647 12.1979 13.5157 12.1979H17.073C20.0183 12.1979 18.435 15.0599 16.6902 14.9714H13.4298C11.9767 14.9714 11.8543 15.2031 10.6537 14.4063ZM19.9168 14.987C19.4923 14.987 19.1485 14.6432 19.1485 14.2188C19.1485 13.7943 19.4923 13.4505 19.9168 13.4505H24.8621L27.5105 8.0599C27.6954 7.67969 28.1563 7.52344 28.5366 7.70833C28.9168 7.89323 29.073 8.35417 28.8881 8.73177L26.0574 14.4922C25.948 14.7813 25.6668 14.987 25.3386 14.987H19.9168ZM13.0444 15.5365H27.9428C28.0287 15.5365 28.0991 15.6094 28.0991 15.6927V17.9297C28.0991 18.013 28.0261 18.0859 27.9428 18.0859H27.2397V31.7943C27.2397 31.9089 27.1459 32 27.0339 32H25.2657C25.1511 32 25.06 31.9063 25.06 31.7943V18.0859H13.0444C12.961 18.0859 12.8881 18.0156 12.8881 17.9297V15.6927C12.8881 15.6068 12.9584 15.5365 13.0444 15.5365ZM1.4428 29.25C1.45582 29.1432 1.5053 29.0391 1.58603 28.9557C2.1928 28.3438 2.96103 27.8438 3.83864 27.5026C4.45322 27.263 5.11728 27.1016 5.8152 27.0313L5.68239 24.9401H0.921969C0.427177 24.9401 0.0183231 24.5339 0.0183231 24.0365C0.0183231 20.2995 0.898531 17.4896 0.0183231 13.2344C-0.242094 11.974 2.35947 11.7917 2.35947 13.3021V22.8776H11.3647C11.8621 22.8776 12.2657 23.5391 12.2657 24.0365V24.7396C12.2657 24.849 12.1746 24.9375 12.0678 24.9375H7.28916L7.10426 27.0078C7.84384 27.0573 8.55218 27.2083 9.20322 27.4453C10.0418 27.75 10.7839 28.2005 11.3907 28.7526C11.5366 28.8854 11.5886 29.0807 11.5418 29.2604C11.7761 29.4349 11.9272 29.7135 11.9272 30.0286C11.9272 30.5599 11.4975 30.9896 10.9662 30.9896C10.435 30.9896 10.0079 30.5599 10.0079 30.0286C10.0079 29.7109 10.1616 29.4297 10.3985 29.2552C9.95061 28.9063 9.42718 28.6172 8.85426 28.4089C8.23707 28.1823 7.55739 28.0469 6.84124 28.0234L6.73707 29.0599L6.73186 29.1042C7.13811 29.2161 7.43499 29.5885 7.43499 30.0286C7.43499 30.5599 7.0053 30.9896 6.47666 30.9896C5.94541 30.9896 5.51572 30.5599 5.51572 30.0286C5.51572 29.5911 5.80999 29.2214 6.21103 29.1068L6.20843 29.0573L6.13551 28.0313C5.45061 28.0781 4.80218 28.224 4.21364 28.4531H4.21103C3.63811 28.6771 3.11989 28.9792 2.67718 29.3438C2.85426 29.5182 2.96364 29.7604 2.96364 30.0286C2.96364 30.5599 2.53395 30.9896 2.0053 30.9896C1.47405 30.9896 1.04436 30.5599 1.04436 30.0286C1.04176 29.7083 1.20061 29.4245 1.4428 29.25ZM9.12509 0C11.1537 0 12.797 1.64323 12.797 3.67188C12.797 5.70052 11.1537 7.34375 9.12509 7.34375C7.09645 7.34375 5.45322 5.70052 5.45322 3.67188C5.45322 1.64323 7.09645 0 9.12509 0Z" fill="#000066"/>
</svg>
